pedal_clip_forces.mot
version=1
nRows=81
nColumns=4
inDegrees=yes
endheader
time	PedalClip_calcn_r_Fx	PedalClip_calcn_r_Fy	PedalClip_calcn_r_Fz
0.34118594	74.9358455061967	-484.168100031924	-0
0.34190817	72.4419483084276	-475.056520588689	-0
0.34274785	70.0276914968643	-466.219070437828	-0
0.34358752	67.6850053270565	-457.635608547816	-0
0.3442231	65.4069295013897	-449.293355735072	-0
0.34485868	63.1800512232505	-441.18261689323	-0
0.34610173	60.9938326700283	-433.283418500774	-0
0.34734478	58.8776350415089	-425.568017561721	-0
0.34795689	56.8563026608136	-418.100424266364	-0
0.34856901	54.9103386831637	-410.948982169141	-0
0.34928056	53.0200861458643	-404.04950615569	-0
0.34999211	51.1776691058492	-397.34529974889	-0
0.35070366	49.380824593743	-390.818865059164	-0
0.35141521	47.6294343752551	-384.467792585216	-0
0.35201035	45.9243694030824	-378.294902516836	-0
0.3526055	44.2670204601167	-372.305857427543	-0
0.35345831	42.6588019702585	-366.50776173778	-0
0.35431113	41.1005886910699	-360.90721489336	-0
0.35485638	39.5922723020366	-355.507990446961	-0
0.35540164	38.1325561257208	-350.308881497505	-0
0.35613914	36.7191068923682	-345.302880388397	-0
0.35687664	35.34903833475	-340.478453342823	-0
0.35761414	34.0193453122321	-335.821630137388	-0
0.35835164	32.7271820861885	-331.318025415807	-0
0.35900264	31.4700111554693	-326.954381395068	-0
0.35965364	30.2456457129828	-322.719385280265	-0
0.36030464	29.052224239307	-318.603835402507	-0
0.36095564	27.8881609995998	-314.600414241425	-0
0.36160664	26.7520919026954	-310.703283756624	-0
0.36225765	25.6428515059216	-306.907758200496	-0
0.36290865	24.5594891902712	-303.210143237531	-0
0.36355965	23.5013820241358	-299.608081444112	-0
0.36421065	22.4684031055811	-296.101260373305	-0
0.36486165	21.4611066908249	-292.692084563359	-0
0.36551265	20.4803929055667	-289.385432629645	-0
0.36616365	19.5268979709454	-286.18545242093	-0
0.36681465	18.6005572698293	-283.092531174351	-0
0.36746565	17.7011929996773	-280.106888562234	-0
0.36811665	16.8277977129188	-277.228730128388	-0
0.36876766	15.9799049353677	-274.459357841797	-0
0.36941866	15.1558310934214	-271.795615646578	-0
0.37006966	14.3522770728096	-269.226035435258	-0
0.37072066	13.5640574273162	-266.728388953125	-0
0.37137166	12.7868258093841	-264.28138655045	-0
0.37202266	12.0199448044739	-261.879682572679	-0
0.37267366	11.2660970781655	-259.533471762825	-0
0.37332466	10.5257552252105	-257.244217271644	-0
0.37397566	9.79853477660293	-255.010122663655	-0
0.37462666	9.08405401312215	-252.829578945073	-0
0.37527767	8.38191666966541	-250.701039889161	-0
0.37592867	7.69173642269292	-248.623147422209	-0
0.37657967	7.01315777528676	-246.594829283346	-0
0.37723067	6.34583627678556	-244.615227924052	-0
0.37788167	5.68940202098127	-242.683488200674	-0
0.37853267	5.04347764167844	-240.798581542828	-0
0.37918367	4.40773283041727	-238.959242256879	-0
0.37983467	3.78192225720571	-237.164157712098	-0
0.38048567	3.16589917873794	-235.412188080935	-0
0.38113667	2.55961485329703	-233.702487374352	-0
0.38178767	1.96310587532986	-232.034520306051	-0
0.38243868	1.37648307503657	-230.408039852201	-0
0.38308968	0.799911644665378	-228.823010184795	-0
0.38374068	0.233602620594312	-227.279568548614	-0
0.38439168	-0.322218483061507	-225.777913329337	-0
0.38504268	-0.867335524189024	-224.318219120991	-0
0.38569368	-1.40157557186427	-222.900529516218	-0
0.38634468	-1.92482527082312	-221.524720409526	-0
0.38699568	-2.4370625453719	-220.190410248613	-0
0.38764668	-2.93835653882644	-218.89696839786	-0
0.38829768	-3.4288571127939	-217.643562776502	-0
0.38894869	-3.908783338169	-216.429204505162	-0
0.3895343	-4.37840494716295	-215.25280928854	-0
0.39011992	-4.838028714858	-214.113230090104	-0
0.39070554	-5.28798396453922	-213.009300126863	-0
0.39129116	-5.7286137072397	-211.939855266506	-0
0.39187678	-6.16027495292427	-210.903724341009	-0
0.3924624	-6.58335180323588	-209.899677997658	-0
0.39304802	-6.9982785197628	-208.926322580044	-0
0.39363364	-7.40556714899005	-207.981967491507	-0
0.39421925	-7.8058200457765	-207.064553770654	-0
0.39480487	-8.19971706955721	-206.171703432593	-0
